<?xml version="1.0" encoding="UTF-8" standalone="no"?>
<!-- Created with Inkscape (http://www.inkscape.org/) -->

<svg
   version="1.1"
   id="svg1"
   width="380.39825"
   height="361.33878"
   viewBox="0 0 380.39825 361.33878"
   sodipodi:docname="icon.png"
   xml:space="preserve"
   xmlns:inkscape="http://www.inkscape.org/namespaces/inkscape"
   xmlns:sodipodi="http://sodipodi.sourceforge.net/DTD/sodipodi-0.dtd"
   xmlns="http://www.w3.org/2000/svg"
   xmlns:svg="http://www.w3.org/2000/svg"><defs
     id="defs1" /><sodipodi:namedview
     id="namedview1"
     pagecolor="#ffffff"
     bordercolor="#000000"
     borderopacity="0.25"
     inkscape:showpageshadow="2"
     inkscape:pageopacity="0.0"
     inkscape:pagecheckerboard="0"
     inkscape:deskcolor="#d1d1d1" /><g
     inkscape:groupmode="layer"
     inkscape:label="Image"
     id="g1"
     transform="translate(220.70798,-113.20855)"><path
       style="fill:#ffffff;stroke:none;stroke-width:0.623622"
       d="m -34.69027,412.0354 c -8.70954,7.07123 -19.80237,15.90805 -30.61796,22.92327 -10.55666,6.84726 -18.298907,11.07216 -28.96411,12.48199 -31.56857,4.17303 -41.31583,10.70967 -42.8073,10.61243 0.63707,-12.1211 35.84501,-41.0661 69.46902,-46.37168 -25.89545,-1.07988 -61.65588,0.78522 -89.39933,-14.6923 -23.12239,-12.89952 -39.60767,-29.34938 -63.69802,-31.85637 2.13724,-4.17708 13.92647,-8.17395 22.47788,-10.44248 60.854,-11.10795 98.41786,14.983 145.48673,36.81416 -22.78921,-17.01571 -57.40546,-34.30854 -82.54026,-61.07423 -14.30756,-15.23592 -29.02828,-32.33065 -38.72217,-52.64346 -11.71621,-24.55042 -31.26812,-69.19865 -31.65793,-74.24691 9.34303,-0.0185 29.50735,15.35498 35.28838,19.27751 14.65372,9.9428 30.05562,18.91676 47.31987,35.69703 16.31734,15.85992 27.85704,35.9851 40.06637,53.72891 25.84868,37.56584 41.29621,71.93133 44.40503,81.03106 -37.98881,-101.18499 -24.87442,-197.72459 1.99633,-272.04577 0.28415,-0.78591 0.6082,-1.55629 0.85701,-2.35027 0.74699,-2.38369 1.66256,-6.2187 2.10241,-5.60395 0.0642,-0.23584 1.85959,3.74326 2.7547,5.62052 0.40726,0.85411 0.92028,1.66525 1.20707,2.56303 6.72137,21.04086 15.10419,38.73152 18.58994,57.39477 8.38987,44.92076 13.49632,92.77033 7.61079,129.89986 -1.45122,9.15513 -3.41441,20.31556 -5.367,28.71986 -5.41026,23.28669 -11.92101,40.7775 -16.29992,53.67806 6.49828,-12.23852 13.43923,-25.65662 21.1977,-37.79086 9.17161,-14.34438 21.047785,-35.38694 32.57785,-52.35398 44.014289,-64.76912 111.37672,-102.02183 111.93241,-98.43923 -0.53372,1.51323 -4.70378,12.40604 -11.49006,27.13889 -9.09715,19.74969 -16.54919,43.21957 -27.86642,63.82165 -15.09097,27.47184 -36.58721,45.65621 -59.27007,61.85184 -19.0431,13.59684 -39.02607,26.39724 -55.35575,38.91328 32.13821,-17.73208 54.50895,-31.79581 77.5169,-37.67925 30.89608,-7.90054 58.75154,-3.47541 73.83856,-1.27582 14.89291,2.17129 18.47148,6.32283 21.74189,8.15861 -3.24228,1.79299 -9.68202,2.16161 -22.58705,8.67371 -15.16893,7.65451 -39.78353,24.40623 -62.50541,31.73087 -26.66492,8.59571 -52.89409,5.91362 -74.55356001,5.61312 C 23.21297,409.63445 40.82224,423.4812 53.72674,436.53384 c 4.61772,4.67072 9.0117,10.60717 13.32395,13.3958 5.489065,3.54964 6.621017,6.33121 7.9569,8.16455 -5.152492,-0.66872 -16.838439,-2.49571 -36.7011,-9.23121 -7.006281,-2.37585 -14.82066,-3.38858 -22.13445,-5.2887 -5.90388,-1.53382 -16.69893001,-6.9482 -21.97306,-10.40691 -8.58532,-5.63013 -13.6695,-10.96545 -20.74765,-19.71604 -0.83236,19.69943 3.64718,41.66328 3.64718,61.09599 l -8.75324,-0.3184 c -4.65686,-13.75542 -3.55415,-42.73773 -3.03554,-62.19352 z"
       id="path3"
       sodipodi:nodetypes="cssccscccsscssscsscssssscsscssscsscsscsscssscccc"
       inkscape:export-filename="path3.svg"
       inkscape:export-xdpi="96"
       inkscape:export-ydpi="96" /></g></svg>
